<svg width="10" height="5" viewBox="0 0 10 5" fill="none" xmlns="http://www.w3.org/2000/svg">
<path d="M9.8668 0.711611L5.32157 4.87781C5.27936 4.91655 5.22923 4.94728 5.17405 4.96824C5.11888 4.98921 5.05973 5 5 5C4.94027 5 4.88112 4.98921 4.82594 4.96824C4.77077 4.94728 4.72064 4.91655 4.67842 4.87781L0.133201 0.711611C0.0479136 0.633436 0 0.527408 0 0.416852C0 0.306296 0.0479136 0.200268 0.133201 0.122093C0.218487 0.043918 0.334161 0 0.454775 0C0.575389 0 0.691063 0.043918 0.77635 0.122093L5 3.99406L9.22365 0.122093C9.26588 0.0833846 9.31601 0.0526795 9.37119 0.0317308C9.42636 0.010782 9.4855 0 9.54522 0C9.60495 0 9.66408 0.010782 9.71926 0.0317308C9.77444 0.0526795 9.82457 0.0833846 9.8668 0.122093C9.90903 0.160801 9.94253 0.206755 9.96538 0.257329C9.98824 0.307904 10 0.36211 10 0.416852C10 0.471593 9.98824 0.525799 9.96538 0.576374C9.94253 0.626949 9.90903 0.672902 9.8668 0.711611Z" fill="black"/>
</svg>
