<svg width="15" height="16" viewBox="0 0 15 16" fill="none" xmlns="http://www.w3.org/2000/svg">
<path d="M14.6845 6.55957L8.15788 0.260117C7.97703 0.0920269 7.74118 -0.000766418 7.49676 4.76854e-06C7.25234 0.000775955 7.01706 0.0950559 6.83723 0.264284L0.32038 6.5554C0.219586 6.64903 0.139026 6.76314 0.0838575 6.89043C0.0286887 7.01772 0.000126773 7.15538 0 7.2946V15C0 15.2652 0.103066 15.5195 0.286526 15.7071C0.469985 15.8946 0.71881 16 0.978261 16H4.8913C5.15076 16 5.39958 15.8946 5.58304 15.7071C5.7665 15.5195 5.86957 15.2652 5.86957 15V10.9998C5.86957 10.9114 5.90392 10.8266 5.96507 10.7641C6.02623 10.7015 6.10917 10.6664 6.19565 10.6664H8.80435C8.89083 10.6664 8.97377 10.7015 9.03493 10.7641C9.09608 10.8266 9.13043 10.9114 9.13043 10.9998V15C9.13043 15.2652 9.2335 15.5195 9.41696 15.7071C9.60042 15.8946 9.84925 16 10.1087 16H14.0217C14.2812 16 14.53 15.8946 14.7135 15.7071C14.8969 15.5195 15 15.2652 15 15V7.2946C14.9999 7.15645 14.9719 7.01982 14.9176 6.89331C14.8633 6.7668 14.7839 6.65317 14.6845 6.55957ZM14.3478 15C14.3478 15.0884 14.3135 15.1732 14.2523 15.2357C14.1912 15.2982 14.1082 15.3333 14.0217 15.3333H10.1087C10.0222 15.3333 9.93927 15.2982 9.87812 15.2357C9.81696 15.1732 9.78261 15.0884 9.78261 15V10.9998C9.78261 10.7345 9.67954 10.4802 9.49608 10.2926C9.31262 10.1051 9.0638 9.99973 8.80435 9.99973H6.19565C5.9362 9.99973 5.68738 10.1051 5.50392 10.2926C5.32046 10.4802 5.21739 10.7345 5.21739 10.9998V15C5.21739 15.0884 5.18304 15.1732 5.12188 15.2357C5.06073 15.2982 4.97779 15.3333 4.8913 15.3333H0.978261C0.891777 15.3333 0.808836 15.2982 0.747683 15.2357C0.68653 15.1732 0.652174 15.0884 0.652174 15V7.2946C0.652691 7.24735 0.662814 7.20072 0.681901 7.15768C0.700987 7.11465 0.728619 7.07613 0.763044 7.04459L7.27989 0.753473C7.33966 0.698886 7.417 0.668712 7.49715 0.668712C7.57729 0.668712 7.65463 0.698886 7.7144 0.753473L14.241 7.05209C14.2751 7.08371 14.3022 7.12233 14.3206 7.16542C14.339 7.20851 14.3483 7.25509 14.3478 7.3021V15Z" fill="black"/>
</svg>
