<svg width="22" height="22" viewBox="0 0 22 22" fill="none" xmlns="http://www.w3.org/2000/svg">
<mask id="mask0_308_19009" style="mask-type:alpha" maskUnits="userSpaceOnUse" x="0" y="0" width="22" height="22">
<rect width="22" height="22" fill="white"/>
</mask>
<g mask="url(#mask0_308_19009)">
<path d="M17.514 18.272L13.7449 14.6966C13.2141 15.148 12.6036 15.5002 11.9135 15.753C11.2233 16.0058 10.5332 16.1322 9.84312 16.1322C8.12669 16.1322 6.68028 15.5316 5.50391 14.3304C4.32682 13.1299 3.73828 11.6629 3.73828 9.92937C3.73828 8.19584 4.32682 6.72847 5.50391 5.52727C6.68028 4.3268 8.11784 3.72656 9.81658 3.72656C11.5153 3.72656 12.9575 4.3268 14.1431 5.52727C15.3286 6.72847 15.9214 8.19584 15.9214 9.92937C15.9214 10.6878 15.7887 11.4191 15.5233 12.1234C15.2578 12.8276 14.9128 13.4235 14.4881 13.9111L18.2837 17.5136L17.514 18.272ZM9.84312 15.0487C11.241 15.0487 12.4266 14.5568 13.3999 13.5731C14.3731 12.5885 14.8597 11.374 14.8597 9.92937C14.8597 8.48476 14.3731 7.2702 13.3999 6.2857C12.4266 5.30191 11.241 4.81002 9.84312 4.81002C8.42751 4.81002 7.23308 5.30191 6.25985 6.2857C5.28661 7.2702 4.79999 8.48476 4.79999 9.92937C4.79999 11.374 5.28661 12.5885 6.25985 13.5731C7.23308 14.5568 8.42751 15.0487 9.84312 15.0487Z" fill="#1A0A0C"/>
</g>
</svg>
