<svg width="91" height="71" viewBox="0 0 91 71" fill="none" xmlns="http://www.w3.org/2000/svg">
<path d="M33.2546 71C22.1327 71 13.2753 66.3064 6.92388 57.0506C-2.50658 43.302 -2.28566 25.4135 7.47618 12.5441C13.7862 4.22289 22.4572 0 33.2546 0C46.993 0 61.5391 4.40981 73.158 12.101C83.8933 19.2107 90.5761 28.1688 90.5968 35.4792V35.5138C90.5761 42.8312 83.9002 51.7824 73.158 58.8921C61.5391 66.5833 46.993 70.9931 33.2546 70.9931V71ZM33.2546 2.27759C23.2097 2.27759 15.1462 6.19589 9.28495 13.9217C0.116832 26.0089 -0.0764725 42.8174 8.79479 55.763C14.6905 64.3611 22.9198 68.7224 33.2477 68.7224C63.0993 68.7224 88.2909 48.3279 88.3116 35.5C88.2909 22.679 63.0993 2.27759 33.2477 2.27759H33.2546Z" fill="#F2F1EF"/>
<path d="M44.3577 59.7266C36.1216 59.7266 29.5561 56.5283 24.8409 50.2286C17.8129 40.8274 17.9786 28.6018 25.2551 19.803C29.9427 14.1332 36.3701 11.2603 44.3577 11.2603C67.133 11.2603 86.6429 24.5728 86.6774 35.4831V35.5038C86.6498 46.4141 67.133 59.7266 44.3577 59.7266ZM44.3577 13.5448C37.0812 13.5448 31.2406 16.1408 27.0087 21.2637C20.4156 29.2318 20.2776 40.329 26.6635 48.8717C30.9231 54.5691 36.8741 57.4559 44.3577 57.4559C65.5382 57.4559 84.3854 45.1819 84.3992 35.5038C84.3854 25.8258 65.5382 13.5517 44.3577 13.5517V13.5448Z" fill="#F2F1EF"/>
<path d="M53.3357 51.1764C47.6471 51.1764 43.0975 49.1203 39.8321 45.0636C34.9995 39.0616 35.1168 30.9481 40.1289 25.3268C43.3806 21.6785 47.8266 19.8301 53.3357 19.8301C68.2684 19.8301 82.3865 27.4382 82.4072 35.4963V35.5102C82.3934 43.7067 68.5446 51.1764 53.3357 51.1764ZM53.3357 22.1146C48.4962 22.1146 44.6232 23.7068 41.8203 26.8498C37.5055 31.6957 37.4158 38.4385 41.5994 43.6306C44.4161 47.1266 48.365 48.8988 53.3357 48.8988C60.129 48.8988 67.0534 47.2927 72.3278 44.4959C77.2156 41.9068 80.129 38.5423 80.1359 35.5102C80.129 29.4804 67.7645 22.1146 53.3357 22.1146Z" fill="#F2F1EF"/>
</svg>
