<svg width="17" height="14" viewBox="0 0 17 14" fill="none" xmlns="http://www.w3.org/2000/svg">
<path d="M16.4658 7.59481L9.98141 13.9053C9.91382 13.971 9.82214 14.008 9.72654 14.008C9.63095 14.008 9.53927 13.971 9.47167 13.9053C9.40407 13.8395 9.3661 13.7503 9.3661 13.6572C9.3661 13.5642 9.40407 13.475 9.47167 13.4092L15.3409 7.69735H0.360242C0.2647 7.69735 0.173071 7.66042 0.105513 7.59467C0.0379541 7.52892 0 7.43975 0 7.34677C0 7.25379 0.0379541 7.16462 0.105513 7.09887C0.173071 7.03313 0.2647 6.99619 0.360242 6.99619H15.3409L9.47167 1.28436C9.40407 1.21858 9.3661 1.12935 9.3661 1.03632C9.3661 0.943291 9.40407 0.85407 9.47167 0.788287C9.53927 0.722504 9.63095 0.685547 9.72654 0.685547C9.82214 0.685547 9.91382 0.722503 9.98141 0.788286L16.4658 7.09874C16.4993 7.13129 16.5258 7.16996 16.544 7.21252C16.5621 7.25508 16.5714 7.3007 16.5714 7.34677C16.5714 7.39284 16.5621 7.43846 16.544 7.48102C16.5258 7.52358 16.4993 7.56225 16.4658 7.59481Z" fill="#80151A"/>
</svg>
