<svg width="18" height="17" viewBox="0 0 18 17" fill="none" xmlns="http://www.w3.org/2000/svg">
<path opacity="0.5" d="M1 2.27778V15.6111C1 15.8469 1.09365 16.073 1.26035 16.2397C1.42705 16.4064 1.65314 16.5 1.88889 16.5H16.1111C16.3469 16.5 16.573 16.4064 16.7397 16.2397C16.9064 16.073 17 15.8469 17 15.6111V2.27778M1 2.27778C1 2.04203 1.09365 1.81594 1.26035 1.64924C1.42705 1.48254 1.65314 1.38889 1.88889 1.38889H16.1111C16.3469 1.38889 16.573 1.48254 16.7397 1.64924C16.9064 1.81594 17 2.04203 17 2.27778M1 2.27778V5.83333H17V2.27778M13.4444 0.5V2.27778M9 0.5V2.27778M4.55556 0.5V2.27778" stroke="#1A0A0C" stroke-linecap="round" stroke-linejoin="round"/>
</svg>
