<svg width="23" height="24" viewBox="0 0 23 24" fill="none" xmlns="http://www.w3.org/2000/svg">
<path fill-rule="evenodd" clip-rule="evenodd" d="M6.0345 24C4.41645 24 2.89853 23.3763 1.76338 22.2429C0.625936 21.1118 0 19.5993 0 17.9871C0 16.3748 0.625936 14.8652 1.76338 13.7318L14.2569 1.28296C16.0426 -0.496914 18.821 -0.416529 20.716 1.47223C22.6115 3.36043 22.6939 6.12659 20.9059 7.90817L9.1699 19.6039C8.06851 20.7019 6.27366 20.7019 5.16941 19.6039C4.06744 18.5042 4.06744 16.7157 5.16941 15.6177L13.1195 7.69666C13.3872 7.42928 13.8232 7.42928 14.0916 7.69666C14.3599 7.96347 14.3599 8.39561 14.0916 8.66299L6.1415 16.5863C5.57392 17.1502 5.57392 18.0697 6.1415 18.6353C6.70964 19.2008 7.63253 19.2008 8.19782 18.6353L19.9361 6.94127C21.1697 5.71212 21.0867 3.77718 19.7462 2.43857C18.4027 1.10224 16.4609 1.02242 15.2267 2.25157L2.73318 14.7004C1.85721 15.5733 1.37202 16.7425 1.37202 17.9871C1.37202 19.2345 1.85721 20.4015 2.73318 21.2766C3.61143 22.1517 4.78263 22.6329 6.0345 22.6329C7.2858 22.6329 8.457 22.1517 9.33526 21.2766L21.8288 8.82775C22.0971 8.56037 22.5308 8.56037 22.7992 8.82775C23.0669 9.09513 23.0669 9.52727 22.7992 9.79408L10.3056 22.2429C9.1699 23.3763 7.65255 24 6.0345 24Z" fill="#F2F1EF"/>
</svg>
