<svg width="42" height="42" viewBox="0 0 42 42" fill="none" xmlns="http://www.w3.org/2000/svg">
<rect width="42" height="42" rx="10" fill="#1A0A0C" fill-opacity="0.1"/>
<path fill-rule="evenodd" clip-rule="evenodd" d="M14.7747 12.8732C14.7747 14.1183 13.8267 15.126 12.3442 15.126C10.9194 15.126 9.97132 14.1183 10.0007 12.8732C9.97132 11.5676 10.9193 10.5894 12.3726 10.5894C13.8267 10.5894 14.7463 11.5676 14.7747 12.8732ZM10.1199 31.4084V16.9056H14.6271V31.4075H10.1199V31.4084Z" fill="#80151A"/>
<path fill-rule="evenodd" clip-rule="evenodd" d="M18.2393 21.534C18.2393 19.725 18.1797 18.1829 18.1201 16.9075H22.0351L22.2432 18.8943H22.3322C22.9254 17.9747 24.4079 16.582 26.8101 16.582C29.7752 16.582 31.9995 18.5395 31.9995 22.8084V31.4103H27.4922V23.3732C27.4922 21.5037 26.8404 20.2293 25.2093 20.2293C23.9633 20.2293 23.2224 21.0893 22.9263 21.919C22.8071 22.2161 22.7484 22.6305 22.7484 23.0468V31.4103H18.2411V21.534H18.2393Z" fill="#80151A"/>
</svg>
