<?xml version="1.0" encoding="UTF-8"?>
<svg xmlns="http://www.w3.org/2000/svg" width="37" height="32" viewBox="0 0 37 32" fill="none">
  <path d="M36.1247 20.0715C36.1247 20.2514 36.0533 20.4238 35.9262 20.5509C35.799 20.6781 35.6266 20.7495 35.4468 20.7495H32.0569V24.1393C32.0569 24.3191 31.9855 24.4916 31.8584 24.6187C31.7312 24.7459 31.5588 24.8173 31.379 24.8173C31.1992 24.8173 31.0267 24.7459 30.8996 24.6187C30.7724 24.4916 30.701 24.3191 30.701 24.1393V20.7495H27.3112C27.1314 20.7495 26.9589 20.6781 26.8318 20.5509C26.7046 20.4238 26.6332 20.2514 26.6332 20.0715C26.6332 19.8917 26.7046 19.7193 26.8318 19.5921C26.9589 19.465 27.1314 19.3936 27.3112 19.3936H30.701V16.0037C30.701 15.8239 30.7724 15.6515 30.8996 15.5244C31.0267 15.3972 31.1992 15.3258 31.379 15.3258C31.5588 15.3258 31.7312 15.3972 31.8584 15.5244C31.9855 15.6515 32.0569 15.8239 32.0569 16.0037V19.3936H35.4468C35.6266 19.3936 35.799 19.465 35.9262 19.5921C36.0533 19.7193 36.1247 19.8917 36.1247 20.0715ZM4.26032 5.83425H7.65015V9.22408C7.65015 9.40389 7.72158 9.57634 7.84872 9.70348C7.97586 9.83062 8.14831 9.90205 8.32811 9.90205C8.50792 9.90205 8.68037 9.83062 8.80751 9.70348C8.93465 9.57634 9.00608 9.40389 9.00608 9.22408V5.83425H12.3959C12.5757 5.83425 12.7482 5.76283 12.8753 5.63568C13.0024 5.50854 13.0739 5.3361 13.0739 5.15629C13.0739 4.97648 13.0024 4.80404 12.8753 4.67689C12.7482 4.54975 12.5757 4.47832 12.3959 4.47832H9.00608V1.08849C9.00608 0.908684 8.93465 0.73624 8.80751 0.609097C8.68037 0.481954 8.50792 0.410525 8.32811 0.410525C8.14831 0.410525 7.97586 0.481954 7.84872 0.609097C7.72158 0.73624 7.65015 0.908684 7.65015 1.08849V4.47832H4.26032C4.08051 4.47832 3.90807 4.54975 3.78092 4.67689C3.65378 4.80404 3.58235 4.97648 3.58235 5.15629C3.58235 5.3361 3.65378 5.50854 3.78092 5.63568C3.90807 5.76283 4.08051 5.83425 4.26032 5.83425ZM25.9552 27.5292H23.9213V25.4953C23.9213 25.3155 23.8499 25.143 23.7228 25.0159C23.5956 24.8887 23.4232 24.8173 23.2434 24.8173C23.0636 24.8173 22.8911 24.8887 22.764 25.0159C22.6368 25.143 22.5654 25.3155 22.5654 25.4953V27.5292H20.5315C20.3517 27.5292 20.1793 27.6006 20.0521 27.7277C19.925 27.8549 19.8535 28.0273 19.8535 28.2071C19.8535 28.3869 19.925 28.5594 20.0521 28.6865C20.1793 28.8137 20.3517 28.8851 20.5315 28.8851H22.5654V30.919C22.5654 31.0988 22.6368 31.2713 22.764 31.3984C22.8911 31.5255 23.0636 31.597 23.2434 31.597C23.4232 31.597 23.5956 31.5255 23.7228 31.3984C23.8499 31.2713 23.9213 31.0988 23.9213 30.919V28.8851H25.9552C26.135 28.8851 26.3075 28.8137 26.4346 28.6865C26.5618 28.5594 26.6332 28.3869 26.6332 28.2071C26.6332 28.0273 26.5618 27.8549 26.4346 27.7277C26.3075 27.6006 26.135 27.5292 25.9552 27.5292ZM31.4603 7.38849L7.84845 31.0021C7.6595 31.1917 7.43497 31.3421 7.18774 31.4448C6.94052 31.5474 6.67546 31.6003 6.40777 31.6003C6.14008 31.6003 5.87503 31.5474 5.6278 31.4448C5.38058 31.3421 5.15605 31.1917 4.9671 31.0021L1.4654 27.4953C1.27579 27.3063 1.12534 27.0818 1.02268 26.8346C0.92003 26.5873 0.867188 26.3223 0.867188 26.0546C0.867188 25.7869 0.92003 25.5218 1.02268 25.2746C1.12534 25.0274 1.27579 24.8029 1.4654 24.6139L25.079 1.00544C25.2679 0.815827 25.4924 0.665379 25.7397 0.562724C25.9869 0.460069 26.2519 0.407227 26.5196 0.407227C26.7873 0.407227 27.0524 0.460069 27.2996 0.562724C27.5468 0.665379 27.7714 0.815827 27.9603 1.00544L31.4603 4.51222C31.8417 4.89365 32.056 5.41096 32.056 5.95036C32.056 6.48976 31.8417 7.00707 31.4603 7.38849ZM23.64 13.2919L19.1756 8.82748L2.42472 25.5783C2.29793 25.7054 2.22673 25.8776 2.22673 26.0571C2.22673 26.2367 2.29793 26.4089 2.42472 26.5359L5.92981 30.0427C5.99277 30.1058 6.06754 30.1558 6.14985 30.1899C6.23215 30.224 6.32037 30.2416 6.40947 30.2416C6.49856 30.2416 6.58679 30.224 6.66909 30.1899C6.75139 30.1558 6.82617 30.1058 6.88913 30.0427L23.64 13.2919ZM30.5027 5.47154L26.9959 1.96476C26.9329 1.90173 26.8582 1.85172 26.7759 1.8176C26.6936 1.78349 26.6053 1.76592 26.5163 1.76592C26.4272 1.76592 26.3389 1.78349 26.2566 1.8176C26.1743 1.85172 26.0996 1.90173 26.0366 1.96476L20.1332 7.86815L24.5993 12.3326L30.5027 6.42917C30.6295 6.30207 30.7007 6.12988 30.7007 5.95036C30.7007 5.77083 30.6295 5.59864 30.5027 5.47154Z" fill="#80151A"></path>
</svg>
