<svg width="734" height="588" viewBox="0 0 734 588" fill="none" xmlns="http://www.w3.org/2000/svg">
<path opacity="0.06" d="M269.423 588C179.316 588 107.554 549.129 56.0962 472.475C-20.3079 358.614 -18.518 210.467 60.5708 103.886C111.693 34.9727 181.945 0 269.423 0C380.729 0 498.579 36.5207 592.714 100.217C679.689 159.097 733.832 233.285 734 293.828V294.115C733.832 354.715 679.745 428.846 592.714 487.726C498.579 551.422 380.729 587.943 269.423 587.943V588ZM269.423 18.8623C188.041 18.8623 122.712 51.3124 75.2251 115.295C0.946551 215.397 -0.619567 354.6 71.2539 461.812C119.02 533.018 185.692 569.138 269.367 569.138C511.22 569.138 715.318 400.237 715.486 294C715.318 187.821 511.22 18.8623 269.367 18.8623H269.423Z" fill="#80151A"/>
<path opacity="0.06" d="M358.695 495.158C291.895 495.158 238.646 468.729 200.403 416.672C143.402 338.987 144.746 237.962 203.762 165.254C241.782 118.403 293.911 94.6626 358.695 94.6626C543.416 94.6626 701.652 204.669 701.932 294.824V294.996C701.708 385.152 543.416 495.158 358.695 495.158ZM358.695 113.54C299.678 113.54 252.308 134.992 217.985 177.324C164.511 243.168 163.391 334.868 215.185 405.46C249.733 452.54 297.999 476.395 358.695 476.395C530.481 476.395 683.342 374.969 683.454 294.996C683.342 215.023 530.481 113.598 358.695 113.598V113.54Z" fill="#80151A"/>
<path opacity="0.06" d="M431.596 424.161C385.669 424.161 348.939 407.206 322.576 373.751C283.561 324.254 284.508 257.346 324.973 210.989C351.224 180.903 387.119 165.66 431.596 165.66C552.153 165.66 666.134 228.401 666.301 294.853V294.968C666.189 362.562 554.383 424.161 431.596 424.161ZM431.596 184.499C392.525 184.499 361.257 197.63 338.628 223.548C303.793 263.511 303.068 319.116 336.845 361.934C359.585 390.764 391.466 405.379 431.596 405.379C486.44 405.379 542.344 392.134 584.926 369.07C624.387 347.718 647.908 319.973 647.964 294.968C647.908 245.243 548.085 184.499 431.596 184.499Z" fill="#80151A"/>
</svg>
