<svg width="31" height="32" viewBox="0 0 31 32" fill="none" xmlns="http://www.w3.org/2000/svg">
<path d="M30.1709 21.2568C30.1709 21.4386 30.0987 21.613 29.9701 21.7416C29.8415 21.8702 29.6671 21.9425 29.4852 21.9425H24.6853V26.0567H28.1138C28.2957 26.0567 28.4701 26.1289 28.5987 26.2575C28.7273 26.3861 28.7995 26.5605 28.7995 26.7424C28.7995 26.9242 28.7273 27.0987 28.5987 27.2273C28.4701 27.3558 28.2957 27.4281 28.1138 27.4281H24.6853V30.8566C24.6853 31.0385 24.613 31.2129 24.4844 31.3415C24.3559 31.4701 24.1814 31.5423 23.9996 31.5423C23.8177 31.5423 23.6433 31.4701 23.5147 31.3415C23.3861 31.2129 23.3139 31.0385 23.3139 30.8566V21.2568C23.3139 21.0749 23.3861 20.9005 23.5147 20.7719C23.6433 20.6433 23.8177 20.5711 23.9996 20.5711H29.4852C29.6671 20.5711 29.8415 20.6433 29.9701 20.7719C30.0987 20.9005 30.1709 21.0749 30.1709 21.2568ZM7.54273 24.6853C7.54273 25.7764 7.10926 26.8229 6.3377 27.5945C5.56614 28.366 4.51967 28.7995 3.42851 28.7995H1.3714V30.8566C1.3714 31.0385 1.29916 31.2129 1.17057 31.3415C1.04197 31.4701 0.867562 31.5423 0.685702 31.5423C0.503843 31.5423 0.329432 31.4701 0.200838 31.3415C0.0722436 31.2129 0 31.0385 0 30.8566V21.2568C0 21.0749 0.0722436 20.9005 0.200838 20.7719C0.329432 20.6433 0.503843 20.5711 0.685702 20.5711H3.42851C4.51967 20.5711 5.56614 21.0045 6.3377 21.7761C7.10926 22.5477 7.54273 23.5941 7.54273 24.6853ZM6.17132 24.6853C6.17132 23.9578 5.88235 23.2602 5.36797 22.7458C4.85359 22.2314 4.15595 21.9425 3.42851 21.9425H1.3714V27.4281H3.42851C4.15595 27.4281 4.85359 27.1391 5.36797 26.6247C5.88235 26.1104 6.17132 25.4127 6.17132 24.6853ZM19.8854 26.0567C19.8854 27.5116 19.3074 28.9068 18.2787 29.9356C17.2499 30.9644 15.8546 31.5423 14.3997 31.5423H11.6569C11.4751 31.5423 11.3007 31.4701 11.1721 31.3415C11.0435 31.2129 10.9712 31.0385 10.9712 30.8566V21.2568C10.9712 21.0749 11.0435 20.9005 11.1721 20.7719C11.3007 20.6433 11.4751 20.5711 11.6569 20.5711H14.3997C15.8546 20.5711 17.2499 21.149 18.2787 22.1778C19.3074 23.2065 19.8854 24.6018 19.8854 26.0567ZM18.514 26.0567C18.514 24.9655 18.0805 23.9191 17.3089 23.1475C16.5374 22.3759 15.4909 21.9425 14.3997 21.9425H12.3426V30.1709H14.3997C15.4909 30.1709 16.5374 29.7374 17.3089 28.9659C18.0805 28.1943 18.514 27.1478 18.514 26.0567ZM0 14.3997V2.05711C0 1.51153 0.21673 0.988295 0.602512 0.602513C0.988295 0.216731 1.51153 2.1202e-07 2.05711 2.1202e-07H18.514C18.604 -7.06176e-05 18.6932 0.0176058 18.7765 0.0520199C18.8597 0.086434 18.9354 0.136911 18.9991 0.200568L28.5989 9.8004C28.6626 9.86413 28.7131 9.93977 28.7475 10.023C28.7819 10.1063 28.7996 10.1955 28.7995 10.2855V14.3997C28.7995 14.5816 28.7273 14.756 28.5987 14.8846C28.4701 15.0132 28.2957 15.0855 28.1138 15.0855C27.9319 15.0855 27.7575 15.0132 27.6289 14.8846C27.5003 14.756 27.4281 14.5816 27.4281 14.3997V10.9712H18.514C18.3321 10.9712 18.1577 10.899 18.0291 10.7704C17.9005 10.6418 17.8283 10.4674 17.8283 10.2855V1.3714H2.05711C1.87525 1.3714 1.70084 1.44365 1.57224 1.57224C1.44365 1.70084 1.3714 1.87525 1.3714 2.05711V14.3997C1.3714 14.5816 1.29916 14.756 1.17057 14.8846C1.04197 15.0132 0.867562 15.0855 0.685702 15.0855C0.503843 15.0855 0.329432 15.0132 0.200838 14.8846C0.0722436 14.756 0 14.5816 0 14.3997ZM19.1997 9.59983H26.4578L19.1997 2.33996V9.59983Z" fill="#80151A"/>
</svg>
