<svg width="24" height="31" viewBox="0 0 24 31" fill="none" xmlns="http://www.w3.org/2000/svg">
<path d="M23.5098 11.0267C23.5098 7.33886 21.9556 4.40187 18.8908 2.29585C14.3383 -0.83114 8.41503 -0.757887 4.15364 2.47898C1.3983 4.57127 0 7.44645 0 11.0267C0 15.5821 1.46019 20.4054 4.00694 24.258C6.36113 27.8177 9.32736 30.0336 11.748 30.0404H11.7595C14.1824 30.0336 17.1464 27.82 19.5006 24.258C22.0473 20.4054 23.5075 15.5821 23.5075 11.0267H23.5098ZM0.754166 11.0267C0.754166 7.69597 2.05161 5.02224 4.60981 3.07874C8.61216 0.0387395 14.1779 -0.0253571 18.4645 2.91621C21.3115 4.87115 22.7556 7.59983 22.7556 11.0244C22.7556 20.9227 16.0025 29.2759 11.7549 29.2827C7.50957 29.2759 0.754166 20.9227 0.754166 11.0244V11.0267Z" fill="black"/>
<path d="M19.7749 14.7095C19.7749 11.9786 18.7159 9.80157 16.6299 8.23807C13.517 5.90771 9.46877 5.96265 6.55526 8.37542C4.67787 9.92976 3.72656 12.061 3.72656 14.7095C3.72656 22.2615 8.13465 28.7306 11.7473 28.7421H11.7542C15.3669 28.7329 19.7749 22.2615 19.7749 14.7095ZM4.48302 14.7095C4.48302 12.2968 5.34263 10.3601 7.03893 8.95687C9.67737 6.77072 13.3519 6.72494 16.1806 8.84241C18.0672 10.2548 19.0231 12.2281 19.0231 14.7095C19.0231 21.7327 14.9588 27.9821 11.7542 27.9866C8.54956 27.9821 4.48531 21.7327 4.48531 14.7095H4.48302Z" fill="black"/>
<path d="M16.942 17.6843C16.942 15.798 16.2612 14.2895 14.9179 13.2067C12.9305 11.6043 10.2439 11.6432 8.38259 13.3051C7.17454 14.3833 6.5625 15.8575 6.5625 17.6843C6.5625 22.6357 9.08174 27.3171 11.75 27.3239H11.7546C14.4686 27.3194 16.942 22.7273 16.942 17.6843Z" fill="black"/>
</svg>
