<?xml version="1.0" standalone="no"?>
<!DOCTYPE svg PUBLIC "-//W3C//DTD SVG 1.1//EN" "http://www.w3.org/Graphics/SVG/1.1/DTD/svg11.dtd" >
<svg xmlns="http://www.w3.org/2000/svg">
<metadata>Generated by IcoMoon</metadata>
<defs>
<font id="icomoon" horiz-adv-x="1024">
<font-face units-per-em="1024" ascent="960" descent="-64" />
<missing-glyph horiz-adv-x="1024" />
<glyph unicode="&#x20;" horiz-adv-x="512" d="" />
<glyph unicode="&#xe900;" glyph-name="quote" horiz-adv-x="1365" d="M495.268 960h-401.568c-24.851 0-48.683-10.205-66.256-28.371s-27.444-42.804-27.444-68.494v-442.81c0-25.69 9.872-50.329 27.444-68.495s41.405-28.371 66.256-28.371h414.954v-69.189c0-62.391-23.974-122.225-66.649-166.343s-100.555-68.898-160.906-68.898c-10.65 0-20.865-4.378-28.396-12.16s-11.761-18.347-11.761-29.355c0-11.008 4.231-21.572 11.761-29.355s17.745-12.16 28.396-12.16c81.62 0.111 159.865 33.681 217.579 93.338 57.714 59.665 90.185 140.556 90.29 224.933v608.864c0 25.691-9.871 50.328-27.444 68.494s-41.405 28.371-66.255 28.371zM508.653 406.486h-414.954c-3.55 0-6.955 1.458-9.465 4.053s-3.92 6.115-3.92 9.785v442.81c0 3.67 1.41 7.19 3.92 9.785s5.915 4.053 9.465 4.053h401.568c3.55 0 6.955-1.458 9.465-4.053s3.92-6.115 3.92-9.785v-456.649zM1271.637 960h-401.57c-24.852 0-48.685-10.205-66.257-28.371s-27.444-42.804-27.444-68.494v-442.81c0-25.69 9.872-50.329 27.444-68.495s41.405-28.371 66.257-28.371h414.95v-69.189c0-62.391-23.97-122.225-66.645-166.343s-100.557-68.898-160.905-68.898c-10.658 0-20.864-4.378-28.399-12.16s-11.759-18.347-11.759-29.355c0-11.008 4.224-21.572 11.759-29.355s17.741-12.16 28.399-12.16c81.613 0.111 159.863 33.681 217.574 93.338 57.711 59.665 90.189 140.556 90.291 224.933v608.864c0 25.691-9.873 50.328-27.443 68.494s-41.404 28.371-66.253 28.371zM1285.018 406.486h-414.95c-3.55 0-6.955 1.458-9.463 4.053-2.517 2.595-3.925 6.115-3.925 9.785v442.81c0 3.67 1.408 7.19 3.925 9.785 2.509 2.595 5.914 4.053 9.463 4.053h401.57c3.55 0 6.955-1.458 9.463-4.053s3.917-6.115 3.917-9.785v-456.649z" />
<glyph unicode="&#xe901;" glyph-name="anchor" horiz-adv-x="1120" d="M1070.176 513.056h-130.17c-5.754 0-11.274-2.288-15.341-6.355s-6.355-9.587-6.355-15.341c0-5.754 2.288-11.27 6.355-15.341 4.067-4.067 9.587-6.355 15.341-6.355h107.987c-5.59-124.656-57.619-242.71-145.856-330.944-88.234-88.237-206.288-140.266-330.944-145.856v651.933c38 5.485 72.512 25.16 96.592 55.065 24.077 29.905 35.936 67.821 33.187 106.117s-19.904 74.129-48.006 100.287c-28.106 26.159-65.075 40.702-103.469 40.702s-75.363-14.543-103.469-40.702c-28.102-26.159-45.254-61.992-48.006-100.287-2.749-38.296 9.11-76.212 33.187-106.117 24.080-29.905 58.592-49.58 96.592-55.065v-651.933c-124.656 5.59-242.711 57.619-330.945 145.856-88.235 88.234-140.263 206.288-145.854 330.944h107.987c5.754 0 11.272 2.288 15.34 6.355 4.069 4.070 6.354 9.587 6.354 15.341s-2.285 11.274-6.354 15.341c-4.068 4.067-9.587 6.355-15.34 6.355h-130.17c-5.754 0-11.272-2.288-15.341-6.355s-6.354-9.587-6.354-15.341c0-143.846 57.143-281.802 158.857-383.517 101.715-101.712 239.669-158.854 383.515-158.854s281.802 57.142 383.517 158.854c101.715 101.715 158.858 239.67 158.858 383.517 0 5.754-2.288 11.274-6.355 15.341-4.070 4.067-9.587 6.355-15.341 6.355zM441.024 795.089c0 21.454 6.362 42.427 18.282 60.265 11.917 17.839 28.861 31.742 48.682 39.952s41.632 10.358 62.672 6.173c21.043-4.186 40.371-14.517 55.542-29.687s25.501-34.499 29.686-55.541c4.186-21.042 2.038-42.853-6.173-62.674s-22.112-36.763-39.952-48.682c-17.84-11.919-38.81-18.281-60.266-18.281-28.768 0-56.358 11.429-76.704 31.772-20.342 20.343-31.77 47.934-31.77 76.703z" />
<glyph unicode="&#xe902;" glyph-name="c_icon" d="M818.736 332.295h-138.848v231.41h138.848c36.615 0 72.407 10.858 102.854 31.201 30.444 20.343 54.173 49.256 68.185 83.084s17.678 71.052 10.534 106.963c-7.144 35.912-24.774 68.899-50.664 94.79-25.894 25.891-58.88 43.523-94.792 50.666s-73.134 3.477-106.964-10.535c-33.826-14.012-62.74-37.741-83.084-68.185-20.34-30.445-31.198-66.237-31.198-102.853v-138.847h-231.414v138.847c0 36.616-10.858 72.408-31.201 102.853-20.34 30.444-49.254 54.173-83.082 68.185s-71.052 17.678-106.963 10.535c-35.912-7.143-68.899-24.775-94.79-50.666s-43.523-58.878-50.666-94.79c-7.143-35.912-3.477-73.135 10.535-106.963s37.741-62.74 68.185-83.084c30.444-20.343 66.237-31.201 102.853-31.201h138.848v-231.41h-138.848c-36.615 0-72.408-10.858-102.853-31.201-30.445-20.34-54.173-49.254-68.185-83.084-14.012-33.826-17.678-71.052-10.535-106.964s24.775-68.898 50.666-94.788c25.891-25.89 58.878-43.523 94.79-50.668 35.912-7.141 73.135-3.475 106.963 10.537s62.742 37.741 83.082 68.185c20.343 30.444 31.201 66.236 31.201 102.854v138.848h231.414v-138.848c0-36.618 10.858-72.41 31.198-102.854 20.343-30.444 49.258-54.173 83.084-68.185 33.83-14.012 71.052-17.678 106.964-10.537 35.912 7.144 68.898 24.777 94.792 50.668 25.89 25.89 43.52 58.877 50.664 94.788s3.478 73.137-10.534 106.964c-14.012 33.83-37.741 62.744-68.185 83.084-30.447 20.343-66.239 31.201-102.854 31.201zM679.888 748.837c0 27.462 8.144 54.306 23.398 77.14 15.258 22.833 36.943 40.63 62.314 51.139s53.289 13.259 80.224 7.901c26.935-5.358 51.674-18.582 71.093-38s32.642-44.158 37.997-71.092c5.359-26.934 2.608-54.851-7.902-80.222-10.506-25.371-28.303-47.056-51.139-62.313-22.832-15.258-49.678-23.399-77.138-23.399h-138.848v138.847zM78.216 748.837c0 36.825 14.629 72.141 40.667 98.18s61.355 40.667 98.18 40.667c36.824 0 72.141-14.629 98.18-40.667s40.668-61.355 40.668-98.18v-138.847h-138.848c-36.825 0-72.141 14.628-98.18 40.667s-40.667 61.355-40.667 98.18zM355.912 147.166c0-27.464-8.144-54.306-23.401-77.141-15.257-22.832-36.942-40.629-62.313-51.139s-53.289-13.257-80.223-7.902c-26.934 5.359-51.674 18.582-71.092 38.001s-32.642 44.158-38 71.093c-5.357 26.931-2.608 54.849 7.901 80.22s28.306 47.056 51.139 62.314c22.833 15.258 49.678 23.402 77.14 23.402h138.848v-138.848zM402.193 563.705h231.414v-231.41h-231.414v231.41zM818.736 8.318c-36.826 0-72.141 14.626-98.181 40.666-26.037 26.037-40.666 61.355-40.666 98.181v138.848h138.848c36.823 0 72.141-14.63 98.181-40.67 26.037-26.037 40.666-61.355 40.666-98.178 0-36.826-14.63-72.144-40.666-98.181-26.040-26.040-61.358-40.666-98.181-40.666z" />
<glyph unicode="&#xe903;" glyph-name="call" d="M829.457 85.333c-80.414 0-161.19 18.697-242.338 56.081-81.148 37.389-155.776 90.133-223.878 158.238-67.828 68.1-120.437 142.66-157.825 223.671s-56.082 161.721-56.082 242.131c0 12.8 4.267 23.535 12.8 32.205s19.2 13.006 32 13.006h139.157c10.776 0 20.281-3.515 28.513-10.544s13.47-15.713 15.712-26.051l24.451-125.537c1.696-11.651 1.341-21.662-1.067-30.031s-6.728-15.398-12.964-21.087l-98.543-95.92c15.863-29.043 33.984-56.516 54.359-82.419 20.376-25.899 42.434-50.641 66.174-74.214 23.412-23.411 48.3-45.158 74.668-65.233 26.364-20.075 54.839-38.754 85.414-56.038l95.753 96.572c6.677 6.946 14.758 11.814 24.247 14.605 9.493 2.79 19.349 3.473 29.581 2.052l118.481-24.124c10.773-2.842 19.567-8.341 26.377-16.491 6.814-8.149 10.219-17.395 10.219-27.733v-138.338c0-12.8-4.335-23.467-13.005-32s-19.405-12.8-32.205-12.8z" />
<glyph unicode="&#xe904;" glyph-name="certificate_icon" d="M212.666 741.493l-15.26-15.259 21.111 4.473c39.777 8.427 83.257 9.573 129.11 2.572l0.007-0.001c104.419-15.82 208.696-71.147 293.633-155.963 41.886-42.001 76.591-88.623 102.886-137.693l4.070-7.599 194.197 194.191-2.074 4.131c-25.075 49.914-59.648 98.63-103.595 142.458-79.701 79.699-177.335 131.928-275.081 146.723-95.215 14.45-179.512-8.542-236.639-65.666l-112.368-112.364zM960.448 584.675l-3.507 9.263-193.741-193.734 1.681-3.972c15.633-36.928 26.598-74.709 32.363-112.55v-0.004c7.002-45.85 5.854-89.331-2.573-129.105l-4.471-21.111 127.629 127.625c77.845 77.841 88.559 202.249 42.62 323.59zM698.935 42.206c59.959 59.951 80.141 147.644 65.233 240.102-14.916 92.476-64.956 190.268-146.295 271.605-98.338 98.336-220.871 150.929-328.904 150.929-70.72 0-135.537-22.463-182.83-69.872-57.123-57.126-80.114-141.42-65.663-236.631 14.796-97.741 67.030-195.371 146.734-275.072 81.341-81.34 179.136-131.379 271.614-146.291 92.463-14.912 180.156 5.274 240.111 65.229zM196.262 544.862c34.234 34.233 87.216 43.626 147.195 29.357 59.913-14.252 125.864-51.988 184.3-110.42 58.432-58.432 96.171-124.382 110.421-184.29 14.268-59.981 4.877-112.96-29.359-147.191-24.013-24.017-57.229-35.849-95.573-35.849-71.398 0-159.875 40.87-235.919 116.911-54.176 54.174-92.701 117.538-108.639 178.257-17.075 65.152-6.63 119.023 27.573 153.225zM291.262 547.418c-28.571 0-53.791-8.142-71.602-25.955-26.634-26.633-32.429-70.387-18.977-121.387 14.681-55.667 50.237-113.613 100.048-163.302 48.966-48.964 105.593-83.046 157.006-98.167 51.072-15.023 98.829-11.746 127.684 17.109 28.86 28.855 32.132 76.608 17.109 127.68-15.121 51.413-49.207 108.041-98.172 157.005-67.456 67.456-149.824 107.017-213.096 107.017z" />
<glyph unicode="&#xe905;" glyph-name="channeline_pin" horiz-adv-x="788" d="M787.692 591.065c0 123.39-52.072 221.656-154.758 292.12-152.531 104.624-350.99 102.173-493.767-6.127-92.317-70.005-139.167-166.204-139.167-285.993 0-152.416 48.924-313.795 134.252-442.699 78.876-119.099 178.259-193.241 259.364-193.469h0.384c81.182 0.228 180.488 74.293 259.363 193.469 85.329 128.904 134.252 290.282 134.252 442.699h0.077zM25.268 591.065c0 111.441 43.471 200.9 129.183 265.926 134.099 101.714 320.577 103.858 464.199 5.438 95.39-65.409 143.774-156.705 143.774-271.287 0-331.181-226.261-610.664-368.577-610.893-142.24 0.228-368.578 279.712-368.578 610.893v-0.077zM662.621 467.891c0 91.374-35.482 164.212-105.374 216.525-104.298 77.97-239.933 76.132-337.55-4.596-62.901-52.005-94.774-123.311-94.774-211.929 0-252.676 147.691-469.122 268.734-469.506h0.23c121.041 0.307 268.733 216.83 268.733 469.506zM150.268 467.891c0 80.729 28.801 145.524 85.636 192.475 88.401 73.145 211.515 74.677 306.29 3.83 63.208-47.258 95.236-113.28 95.236-196.305 0-234.982-136.172-444.077-243.543-444.231-107.37 0.154-243.543 209.248-243.543 444.231h-0.077zM567.765 368.282c0 63.112-22.812 113.585-67.818 149.813-66.588 53.614-156.601 52.311-218.965-3.295-40.476-36.074-60.981-85.4-60.981-146.519 0-165.667 84.405-322.296 173.804-322.527h0.154c90.935 0.154 173.806 153.795 173.806 322.527zM245.344 368.282c0 53.691 17.666 96.658 52.533 127.754 53.762 47.87 128.569 48.866 186.171 2.452 38.786-31.25 58.447-75.059 58.447-130.206 0-75.366-17.818-152.188-48.847-210.704-28.723-54.227-66.050-86.548-99.69-86.624-66.895 0.077-148.614 137.251-148.614 297.328zM567.765 368.282c0 63.112-22.812 113.585-67.818 149.813-66.588 53.614-156.601 52.311-218.965-3.295-40.476-36.074-60.981-85.4-60.981-146.519 0-165.667 84.405-322.296 173.804-322.527h0.154c90.935 0.154 173.806 153.795 173.806 322.527z" />
<glyph unicode="&#xe907;" glyph-name="crown" horiz-adv-x="1321" d="M1300.143 659.87c-6.752 5.899-15.106 9.655-23.998 10.792s-17.923-0.398-25.94-4.409l-299.14-149.149c-0.109-0.092-0.248-0.142-0.39-0.142-0.145 0-0.284 0.050-0.393 0.142l-244.776 407.472c-4.037 6.713-9.741 12.267-16.559 16.123s-14.518 5.882-22.35 5.882c-7.835 0-15.535-2.026-22.353-5.882s-12.523-9.41-16.559-16.123l-245.334-407.192c-0.116-0.106-0.264-0.165-0.42-0.165-0.159 0-0.307 0.059-0.42 0.165l-298.972 148.812c-8.020 4.012-17.049 5.556-25.946 4.437s-17.263-4.85-24.040-10.722c-6.777-5.872-11.661-13.622-14.035-22.269s-2.13-17.805 0.699-26.314l207.151-634.665c1.040-3.198 2.785-6.118 5.107-8.549 2.322-2.428 5.161-4.304 8.307-5.487s6.518-1.645 9.865-1.348c3.347 0.301 6.585 1.348 9.473 3.065 1.4 0.895 148.702 86.442 407.193 86.442s405.735-85.547 407.192-86.386c2.884-1.721 6.118-2.771 9.464-3.072 3.343-0.301 6.712 0.155 9.86 1.331 3.145 1.179 5.982 3.049 8.308 5.47 2.325 2.425 4.076 5.341 5.12 8.532l207.152 634.665c2.861 8.496 3.125 17.649 0.76 26.293-2.362 8.645-7.247 16.39-14.029 22.249zM1071.831 15.571c-28.755 13.395-58.385 24.824-88.685 34.208-66.345 20.883-175.183 45.799-316.829 45.799-141.649 0-250.487-24.916-316.885-45.799-30.295-9.404-59.922-20.83-88.684-34.208l-199.089 610.089c0.065 0.139 0.168 0.254 0.298 0.334s0.278 0.119 0.43 0.116l298.971-149.038c10.223-5.061 21.976-6.104 32.933-2.923 10.957 3.184 20.321 10.359 26.244 20.113l245.109 407.248c0.046 0.094 0.119 0.174 0.208 0.23s0.192 0.086 0.297 0.086c0.106 0 0.208-0.030 0.297-0.086s0.162-0.136 0.208-0.23l245.109-407.248c5.919-9.741 15.271-16.909 26.214-20.1 10.94-3.191 22.68-2.174 32.907 2.854l299.53 149.263c0.175-0.063 0.32-0.192 0.403-0.36 0.083-0.165 0.099-0.357 0.046-0.535l-199.033-609.812z" />
<glyph unicode="&#xe908;" glyph-name="down_arrow" horiz-adv-x="2048" d="M2020.721 814.262l-930.863-853.238c-8.645-7.934-18.911-14.227-30.212-18.52-11.299-4.295-23.413-6.504-35.645-6.504s-24.347 2.21-35.647 6.504c-11.299 4.293-21.565 10.586-30.212 18.52l-930.861 853.238c-17.467 16.010-27.28 37.725-27.28 60.367s9.813 44.356 27.28 60.367c17.467 16.010 41.157 25.005 65.858 25.005s48.392-8.994 65.859-25.005l865.004-792.979 865.004 792.979c8.649 7.927 18.915 14.216 30.216 18.506 11.299 4.29 23.411 6.498 35.641 6.498 12.233 0 24.343-2.208 35.643-6.498s21.567-10.579 30.216-18.506c8.649-7.927 15.51-17.339 20.189-27.696 4.682-10.358 7.090-21.459 7.090-32.67s-2.408-22.312-7.090-32.67c-4.68-10.358-11.54-19.769-20.189-27.697z" />
<glyph unicode="&#xe909;" glyph-name="heart" horiz-adv-x="1243" d="M905.216 959.99c186.412-0.913 337.306-152.7 338.213-340.219 0-343.552-621.713-683.771-621.713-683.771s-621.716 345.221-621.716 683.771c0 187.896 151.422 340.219 338.213 340.219 114.342 0.897 221.239-56.954 283.502-153.43 62.689 96.007 169.31 153.708 283.5 153.43z" />
<glyph unicode="&#xe90a;" glyph-name="download" horiz-adv-x="1463" d="M1422.351 448.405c0.322-110.831-35.64-218.726-102.4-307.2-1.921-2.56-4.325-4.72-7.080-6.349-2.755-1.634-5.803-2.706-8.972-3.16s-6.398-0.273-9.499 0.522c-3.106 0.79-6.017 2.189-8.582 4.111-2.56 1.921-4.715 4.33-6.349 7.085-1.629 2.755-2.701 5.803-3.155 8.972s-0.278 6.398 0.517 9.499c0.795 3.101 2.189 6.017 4.111 8.577 44.042 58.719 73.499 127.069 85.943 199.407s7.524 146.597-14.365 216.659c-21.884 70.062-60.104 133.921-111.514 186.313s-114.527 91.819-184.164 115.030c-69.632 23.212-143.789 29.543-216.347 18.474-72.563-11.069-141.453-39.224-201.001-82.142s-108.042-99.372-141.488-164.71c-33.448-65.337-50.89-137.688-50.89-211.089 0-6.466-2.569-12.668-7.141-17.237-4.572-4.574-10.773-7.144-17.24-7.144s-12.668 2.57-17.24 7.144c-4.572 4.569-7.141 10.772-7.141 17.237-0.022 56.57 9.392 112.746 27.855 166.218-43.274 7.327-87.597 5.588-130.164-5.108s-82.447-30.116-117.115-57.030c-34.669-26.914-63.37-60.734-84.286-99.32s-33.59-81.091-37.22-124.83c-3.63-43.739 1.864-87.757 16.133-129.263s37.003-79.594 66.761-111.855c29.758-32.261 65.892-57.988 106.113-75.557 40.22-17.564 83.651-26.585 127.541-26.492h146.283c6.471 0 12.668-2.57 17.242-7.139 4.574-4.574 7.139-10.776 7.139-17.242s-2.565-12.668-7.139-17.237c-4.574-4.574-10.772-7.144-17.242-7.144h-146.283c-51.014 0.020-101.46 10.708-148.096 31.383s-88.431 50.878-122.699 88.669c-34.267 37.79-60.25 82.33-76.278 130.76-16.028 48.435-21.746 99.679-16.787 150.455 4.959 50.771 20.485 99.942 45.58 144.357s59.206 83.087 100.138 113.532c40.932 30.446 87.781 51.991 137.537 63.252s101.316 11.987 151.369 2.133c48.591 106.243 132.052 192.673 236.534 244.945 104.477 52.271 223.695 67.24 337.852 42.421 114.161-24.819 216.4-87.934 289.748-178.866 73.343-90.932 113.386-204.214 113.479-321.041zM1039.389 173.085l-153.42-153.42v428.739c0 6.466-2.565 12.668-7.139 17.242-4.574 4.569-10.772 7.139-17.242 7.139-6.466 0-12.663-2.57-17.237-7.139-4.574-4.574-7.144-10.776-7.144-17.242v-428.739l-153.415 153.42c-4.574 4.574-10.781 7.144-17.252 7.144-6.466 0-12.673-2.57-17.247-7.144-4.574-4.579-7.144-10.781-7.144-17.252s2.57-12.673 7.144-17.247l195.048-195.048c2.263-2.267 4.954-4.067 7.914-5.296 2.96-1.224 6.129-1.858 9.333-1.858 3.209 0 6.378 0.634 9.338 1.858 2.96 1.229 5.652 3.028 7.914 5.296l195.048 195.048c4.574 4.574 7.144 10.776 7.144 17.247s-2.57 12.673-7.144 17.252c-4.574 4.574-10.781 7.144-17.252 7.144-6.466 0-12.673-2.57-17.247-7.144z" />
<glyph unicode="&#xe90b;" glyph-name="home" d="M950.81 540.188l-417.705 403.165c-11.574 10.758-26.669 16.697-42.312 16.647s-30.701-6.083-42.211-16.914l-417.078-402.631c-6.451-5.992-11.607-13.295-15.137-21.442s-5.359-16.957-5.367-25.867v-493.146c0-16.973 6.596-33.248 18.338-45.254 11.741-12 27.666-18.746 44.271-18.746h250.435c16.605 0 32.53 6.746 44.271 18.746 11.741 12.006 18.338 28.282 18.338 45.254v256.013c0 5.658 2.199 11.085 6.113 15.085 3.914 4.006 9.222 6.253 14.757 6.253h166.956c5.535 0 10.844-2.246 14.757-6.253 3.914-4 6.113-9.427 6.113-15.085v-256.013c0-16.973 6.596-33.248 18.338-45.254 11.741-12 27.665-18.746 44.273-18.746h250.432c16.608 0 32.531 6.746 44.269 18.746 11.744 12.006 18.342 28.282 18.342 45.254v493.146c-0.006 8.842-1.805 17.586-5.28 25.683s-8.55 15.369-14.912 21.359zM929.261 0c0-5.658-2.202-11.085-6.112-15.085-3.917-4-9.222-6.246-14.758-6.246h-250.432c-5.536 0-10.848 2.246-14.758 6.246-3.914 4-6.113 9.427-6.113 15.085v256.013c0 16.979-6.596 33.254-18.337 45.261-11.741 12-27.667 18.744-44.271 18.744h-166.956c-16.605 0-32.53-6.744-44.271-18.744-11.741-12.006-18.337-28.282-18.337-45.261v-256.013c0-5.658-2.199-11.085-6.113-15.085s-9.222-6.246-14.757-6.246h-250.435c-5.535 0-10.843 2.246-14.757 6.246s-6.113 9.427-6.113 15.085v493.146c0.033 3.024 0.681 6.008 1.903 8.763s2.99 5.219 5.193 7.238l417.078 402.631c3.825 3.494 8.774 5.425 13.904 5.425s10.079-1.931 13.905-5.425l417.704-403.111c2.176-2.024 3.917-4.495 5.094-7.253s1.773-5.739 1.741-8.748v-492.666z" />
<glyph unicode="&#xe90c;" glyph-name="magic" horiz-adv-x="1184" d="M1155.99 317.712c0-5.757-2.285-11.274-6.352-15.341-4.070-4.070-9.587-6.355-15.341-6.355h-108.477v-108.474c0-5.754-2.285-11.274-6.352-15.341-4.070-4.070-9.587-6.355-15.341-6.355s-11.274 2.285-15.341 6.355c-4.070 4.067-6.355 9.587-6.355 15.341v108.474h-108.474c-5.754 0-11.274 2.285-15.341 6.355-4.070 4.067-6.355 9.584-6.355 15.341 0 5.754 2.285 11.27 6.355 15.341 4.067 4.067 9.587 6.352 15.341 6.352h108.474v108.477c0 5.754 2.285 11.27 6.355 15.338 4.067 4.070 9.587 6.355 15.341 6.355s11.27-2.285 15.341-6.355c4.067-4.067 6.352-9.584 6.352-15.338v-108.477h108.477c5.754 0 11.27-2.285 15.341-6.352 4.067-4.070 6.352-9.587 6.352-15.341zM136.33 773.304h108.475v-108.475c0-5.754 2.286-11.272 6.354-15.341s9.587-6.354 15.34-6.354c5.754 0 11.272 2.286 15.341 6.354s6.354 9.587 6.354 15.341v108.475h108.474c5.754 0 11.274 2.285 15.341 6.354s6.355 9.587 6.355 15.34c0 5.754-2.288 11.272-6.355 15.341s-9.587 6.354-15.341 6.354h-108.474v108.475c0 5.754-2.286 11.272-6.354 15.341s-9.587 6.354-15.341 6.354c-5.754 0-11.272-2.286-15.34-6.354s-6.354-9.587-6.354-15.341v-108.475h-108.475c-5.754 0-11.272-2.286-15.341-6.354s-6.354-9.587-6.354-15.341c0-5.754 2.286-11.272 6.354-15.34s9.587-6.354 15.341-6.354zM830.566 79.066h-65.085v65.085c0 5.754-2.285 11.274-6.352 15.341-4.070 4.070-9.587 6.355-15.341 6.355s-11.274-2.285-15.341-6.355c-4.070-4.067-6.355-9.587-6.355-15.341v-65.085h-65.085c-5.754 0-11.27-2.285-15.341-6.352-4.067-4.070-6.355-9.587-6.355-15.341s2.288-11.274 6.355-15.341c4.070-4.070 9.587-6.355 15.341-6.355h65.085v-65.085c0-5.754 2.285-11.274 6.355-15.341 4.067-4.067 9.587-6.355 15.341-6.355s11.27 2.288 15.341 6.355c4.067 4.067 6.352 9.587 6.352 15.341v65.085h65.085c5.754 0 11.274 2.285 15.341 6.355 4.070 4.067 6.355 9.587 6.355 15.341s-2.285 11.27-6.355 15.341c-4.067 4.067-9.587 6.352-15.341 6.352zM1006.73 723.568l-755.579-755.636c-6.046-6.067-13.231-10.88-21.143-14.166-7.911-3.283-16.393-4.976-24.959-4.976s-17.048 1.693-24.959 4.976c-7.911 3.286-15.096 8.099-21.142 14.166l-112.054 112.218c-6.068 6.048-10.882 13.232-14.167 21.142-3.285 7.914-4.976 16.394-4.976 24.96s1.691 17.050 4.976 24.96c3.285 7.91 8.1 15.094 14.167 21.142l755.635 755.471c6.045 6.068 13.229 10.882 21.142 14.167 7.91 3.285 16.39 4.976 24.957 4.976s17.050-1.691 24.96-4.976c7.91-3.285 15.098-8.099 21.142-14.167l112-112.217c12.205-12.206 19.062-28.76 19.062-46.020s-6.858-33.815-19.062-46.020zM756.48 534.659l-142.861 142.861-536.028-536.026c-4.057-4.067-6.336-9.578-6.336-15.322 0-5.747 2.278-11.258 6.336-15.322l112.163-112.218c2.015-2.019 4.407-3.619 7.041-4.71s5.457-1.654 8.308-1.654c2.851 0 5.674 0.563 8.308 1.654s5.027 2.691 7.041 4.71l536.028 536.026zM976.086 784.911l-112.218 112.217c-2.016 2.017-4.406 3.617-7.040 4.709s-5.459 1.654-8.307 1.654c-2.851 0-5.677-0.562-8.31-1.654s-5.024-2.692-7.040-4.709l-188.909-188.908 142.915-142.862 188.909 188.91c4.058 4.067 6.336 9.577 6.336 15.322s-2.278 11.255-6.336 15.322z" />
<glyph unicode="&#xe90d;" glyph-name="mail" d="M183.796 128c-21.552 0-39.795 7.467-54.729 22.4s-22.4 33.178-22.4 54.729v485.742c0 21.552 7.467 39.795 22.4 54.729s33.176 22.4 54.729 22.4h656.409c21.551 0 39.795-7.467 54.729-22.4s22.4-33.176 22.4-54.729v-485.742c0-21.551-7.467-39.795-22.4-54.729s-33.178-22.4-54.729-22.4h-656.409zM512 424.205l341.333 218.258-6.566 61.537-334.767-213.333-334.769 213.333-6.564-61.537 341.333-218.258z" />
<glyph unicode="&#xe90e;" glyph-name="minus" horiz-adv-x="15872" d="M88 960h15360.013v-1024h-15360.013v1024z" />
<glyph unicode="&#xe90f;" glyph-name="pdf" horiz-adv-x="992" d="M965.469 279.782c0-5.818-2.31-11.398-6.426-15.514s-9.696-6.429-15.517-6.429h-153.597v-131.654h109.712c5.821 0 11.402-2.31 15.517-6.426s6.426-9.696 6.426-15.517c0-5.818-2.31-11.402-6.426-15.517-4.115-4.112-9.696-6.426-15.517-6.426h-109.712v-109.712c0-5.821-2.314-11.402-6.429-15.517-4.112-4.115-9.696-6.426-15.514-6.426-5.821 0-11.402 2.31-15.517 6.426s-6.426 9.696-6.426 15.517v307.194c0 5.821 2.31 11.402 6.426 15.517s9.696 6.426 15.517 6.426h175.539c5.821 0 11.402-2.31 15.517-6.426s6.426-9.696 6.426-15.517zM241.367 170.070c0-34.915-13.871-68.403-38.561-93.094-24.69-24.688-58.177-38.56-93.094-38.56h-65.828v-65.827c0-5.821-2.312-11.402-6.427-15.517s-9.696-6.426-15.516-6.426c-5.819 0-11.401 2.31-15.516 6.426s-6.427 9.696-6.427 15.517v307.194c0 5.821 2.312 11.402 6.427 15.517s9.696 6.426 15.516 6.426h87.77c34.917 0 68.404-13.869 93.094-38.56s38.561-58.176 38.561-93.094zM197.482 170.070c0 23.28-9.247 45.603-25.707 62.064s-38.785 25.706-62.063 25.706h-65.828v-175.539h65.828c23.278 0 45.603 9.248 62.063 25.709 16.46 16.458 25.707 38.784 25.707 62.061zM636.333 126.186c0-46.557-18.496-91.203-51.414-124.125-32.922-32.922-77.571-51.414-124.128-51.414h-87.77c-5.818 0-11.398 2.31-15.514 6.426s-6.429 9.696-6.429 15.517v307.194c0 5.821 2.314 11.402 6.429 15.517s9.696 6.426 15.514 6.426h87.77c46.557 0 91.206-18.493 124.128-51.414 32.918-32.918 51.414-77.568 51.414-124.125zM592.448 126.186c0 34.918-13.872 68.403-38.563 93.094-24.688 24.691-58.176 38.56-93.094 38.56h-65.827v-263.309h65.827c34.918 0 68.406 13.872 93.094 38.56 24.691 24.691 38.563 58.179 38.563 93.094zM0 499.21v394.963c0 17.459 6.935 34.202 19.28 46.547s29.089 19.28 46.547 19.28h526.62c2.88 0.002 5.734-0.563 8.4-1.665 2.662-1.101 5.085-2.717 7.123-4.754l307.194-307.195c2.038-2.039 3.654-4.46 4.755-7.123 1.101-2.666 1.667-5.52 1.664-8.4v-131.654c0-5.821-2.31-11.402-6.426-15.517s-9.696-6.429-15.517-6.429c-5.821 0-11.402 2.314-15.517 6.429s-6.426 9.696-6.426 15.517v109.712h-285.251c-5.821 0-11.402 2.31-15.517 6.426s-6.426 9.696-6.426 15.517v285.251h-504.678c-5.82 0-11.401-2.312-15.516-6.427s-6.427-9.696-6.427-15.516v-394.963c0-5.821-2.312-11.402-6.427-15.517s-9.696-6.429-15.516-6.429c-5.819 0-11.401 2.314-15.516 6.429s-6.427 9.696-6.427 15.517zM614.39 652.805h232.259l-232.259 232.316v-232.316z" />
<glyph unicode="&#xe910;" glyph-name="plus" horiz-adv-x="1058" d="M5.867 486.605h473.396v473.395h77.206v-473.395h473.399v-77.21h-473.399v-473.395h-77.206v473.395h-473.396v77.21z" />
<glyph unicode="&#xe911;" glyph-name="right_button_arrow" horiz-adv-x="1243" d="M1204.356 404.494l-474.287-461.567c-4.944-4.805-11.649-7.512-18.642-7.512s-13.697 2.706-18.642 7.512c-4.944 4.813-7.722 11.337-7.722 18.147 0 6.802 2.777 13.327 7.722 18.139l429.292 417.781h-1095.728c-6.988 0-13.69 2.701-18.632 7.51s-7.718 11.331-7.718 18.132c0 6.801 2.776 13.323 7.718 18.132s11.643 7.51 18.632 7.51h1095.728l-429.292 417.78c-4.944 4.811-7.722 11.338-7.722 18.142s2.777 13.33 7.722 18.142c4.944 4.812 11.65 7.515 18.642 7.515s13.698-2.703 18.642-7.515l474.287-461.565c2.45-2.381 4.389-5.209 5.72-8.322 1.324-3.113 2.004-6.45 2.004-9.819s-0.68-6.706-2.004-9.819c-1.331-3.113-3.269-5.941-5.72-8.323z" />
<glyph unicode="&#xe912;" glyph-name="search" d="M815.197 109.521l-175.434 166.419c-24.706-21.011-53.122-37.404-85.243-49.171-32.126-11.767-64.247-17.65-96.367-17.65-79.892 0-147.216 27.955-201.971 83.866-54.788 55.878-82.182 124.16-82.182 204.848s27.394 148.987 82.182 204.898c54.755 55.876 121.667 83.815 200.735 83.815s146.196-27.938 201.38-83.815c55.18-55.91 82.772-124.21 82.772-204.898 0-35.301-6.177-69.34-18.53-102.122-12.358-32.777-28.416-60.514-48.184-83.209l176.668-167.68-35.826-35.3zM458.152 259.551c65.065 0 120.249 22.896 165.552 68.682 45.298 45.829 67.947 102.358 67.947 169.599s-22.649 123.772-67.947 169.596c-45.303 45.791-100.487 68.686-165.552 68.686-65.89 0-121.485-22.895-166.785-68.686-45.3-45.824-67.95-102.356-67.95-169.596s22.65-123.77 67.95-169.599c45.299-45.787 100.895-68.682 166.785-68.682z" />
<glyph unicode="&#xe913;" glyph-name="swiper_arrow" horiz-adv-x="1280" d="M1236.779 428.937l-484.169-485.039c-5.043-5.056-11.891-7.898-19.029-7.898s-13.982 2.842-19.029 7.898c-5.047 5.056-7.885 11.913-7.885 19.063s2.837 14.007 7.885 19.063l438.238 439.027h-1118.558c-7.134 0-13.975 2.842-19.020 7.893-5.044 5.056-7.878 11.908-7.878 19.055s2.834 13.999 7.878 19.055c5.044 5.052 11.886 7.893 19.020 7.893h1118.558l-438.238 439.025c-5.047 5.056-7.885 11.914-7.885 19.065s2.837 14.008 7.885 19.065c5.047 5.056 11.891 7.897 19.029 7.897s13.986-2.841 19.029-7.897l484.169-485.040c2.5-2.5 4.484-5.474 5.837-8.742 1.353-3.273 2.052-6.78 2.052-10.321s-0.7-7.049-2.052-10.321c-1.353-3.268-3.337-6.242-5.837-8.742z" />
<glyph unicode="&#xe914;" glyph-name="location_on" horiz-adv-x="819" d="M409.6 448c28.16 0 52.266 10.026 72.32 30.080s30.080 44.16 30.080 72.32c0 28.16-10.026 52.266-30.080 72.32s-44.16 30.080-72.32 30.080c-28.16 0-52.266-10.026-72.32-30.080s-30.080-44.16-30.080-72.32c0-28.16 10.026-52.266 30.080-72.32s44.16-30.080 72.32-30.080zM409.6-64c-137.386 116.905-240 225.495-307.84 325.76s-101.76 193.066-101.76 278.4c0 128 41.173 229.974 123.52 305.92s177.706 113.92 286.080 113.92c108.375 0 203.735-37.973 286.080-113.92s123.52-177.92 123.52-305.92c0-85.334-33.92-178.135-101.76-278.4s-170.455-208.855-307.84-325.76z" />
</font>
</defs>
</svg>
